<svg width="1200" height="820" viewBox="0 0 1200 820" fill="none" xmlns="http://www.w3.org/2000/svg">
  <rect width="1200" height="820" rx="56" fill="#F4E9D3"/>
  <rect x="48" y="48" width="1104" height="724" rx="40" fill="#F8F0E0" stroke="#D7C1A0" stroke-width="2"/>
  <circle cx="216" cy="182" r="118" fill="#E8D2B5"/>
  <circle cx="1006" cy="632" r="156" fill="#E4C19B" fill-opacity="0.56"/>
  <circle cx="460" cy="280" r="82" fill="#C98A59"/>
  <path d="M392 250C372 192 424 142 468 142C512 142 566 190 544 250" fill="#392C24"/>
  <path d="M418 212C440 188 486 186 510 212" stroke="#F0E0C7" stroke-width="8" stroke-linecap="round"/>
  <circle cx="434" cy="278" r="8" fill="#241913"/>
  <circle cx="490" cy="278" r="8" fill="#241913"/>
  <path d="M462 292L452 314H474L462 292Z" fill="#7A4C31"/>
  <path d="M432 332C448 346 476 346 492 332" stroke="#7A4C31" stroke-width="6" stroke-linecap="round"/>
  <path d="M362 650C380 540 424 462 462 462C500 462 544 540 562 650" fill="#9A4F2B"/>
  <path d="M328 650H596" stroke="#7C3F23" stroke-width="12" stroke-linecap="round"/>
  <path d="M602 256C660 250 706 266 740 304" stroke="#C7865A" stroke-width="8" stroke-linecap="round" stroke-dasharray="2 16"/>
  <path d="M780 418C829.706 418 870 377.706 870 328C870 278.294 829.706 238 780 238C730.294 238 690 278.294 690 328C690 377.706 730.294 418 780 418Z" fill="#9A4F2B"/>
  <path d="M719 264L750 216L770 276L719 264Z" fill="#9A4F2B"/>
  <path d="M840 264L809 216L789 276L840 264Z" fill="#9A4F2B"/>
  <ellipse cx="782" cy="342" rx="45" ry="38" fill="#F5EAD8"/>
  <circle cx="759" cy="326" r="6" fill="#392C24"/>
  <circle cx="803" cy="326" r="6" fill="#392C24"/>
  <path d="M782 337L774 350H790L782 337Z" fill="#392C24"/>
  <path d="M763 352C771 360 777 364 782 364C787 364 793 360 801 352" stroke="#392C24" stroke-width="5" stroke-linecap="round"/>
  <path d="M732 342H688" stroke="#392C24" stroke-width="4" stroke-linecap="round"/>
  <path d="M732 356H684" stroke="#392C24" stroke-width="4" stroke-linecap="round"/>
  <path d="M832 342H876" stroke="#392C24" stroke-width="4" stroke-linecap="round"/>
  <path d="M832 356H880" stroke="#392C24" stroke-width="4" stroke-linecap="round"/>
  <path d="M714 414C682 434 656 469 656 504C656 563 714 610 786 610C858 610 916 563 916 504C916 466 888 431 854 412" fill="#9A4F2B"/>
  <path d="M861 444C905 447 950 414 950 368C950 337 930 314 906 302" stroke="#9A4F2B" stroke-width="20" stroke-linecap="round"/>
  <path d="M660 640C732 660 810 666 886 658" stroke="#6C5A4D" stroke-width="6" stroke-linecap="round" stroke-dasharray="2 18"/>
  <path d="M802 518C802 467 843 426 894 426H1014C1065 426 1106 467 1106 518V536H802V518Z" fill="#C7865A"/>
  <path d="M834 536H1074V566C1074 597 1049 622 1018 622H890C859 622 834 597 834 566V536Z" fill="#B56D42"/>
  <path d="M854 482H1054" stroke="#EFD7B4" stroke-width="8" stroke-linecap="round"/>
</svg>
