<svg width="1200" height="820" viewBox="0 0 1200 820" fill="none" xmlns="http://www.w3.org/2000/svg">
  <rect width="1200" height="820" rx="56" fill="#F4E9D3"/>
  <rect x="48" y="48" width="1104" height="724" rx="40" fill="#F8F0E0" stroke="#D7C1A0" stroke-width="2"/>
  <circle cx="250" cy="200" r="124" fill="#E8D2B5"/>
  <circle cx="1010" cy="622" r="160" fill="#E4C19B" fill-opacity="0.55"/>
  <path d="M264 414C313.706 414 354 373.706 354 324C354 274.294 313.706 234 264 234C214.294 234 174 274.294 174 324C174 373.706 214.294 414 264 414Z" fill="#9A4F2B"/>
  <path d="M203 260L234 212L254 272L203 260Z" fill="#9A4F2B"/>
  <path d="M324 260L293 212L273 272L324 260Z" fill="#9A4F2B"/>
  <ellipse cx="266" cy="338" rx="45" ry="38" fill="#F5EAD8"/>
  <circle cx="243" cy="322" r="6" fill="#392C24"/>
  <circle cx="287" cy="322" r="6" fill="#392C24"/>
  <path d="M266 333L258 346H274L266 333Z" fill="#392C24"/>
  <path d="M247 348C255 356 261 360 266 360C271 360 277 356 285 348" stroke="#392C24" stroke-width="5" stroke-linecap="round"/>
  <path d="M216 338H172" stroke="#392C24" stroke-width="4" stroke-linecap="round"/>
  <path d="M216 352H168" stroke="#392C24" stroke-width="4" stroke-linecap="round"/>
  <path d="M316 338H360" stroke="#392C24" stroke-width="4" stroke-linecap="round"/>
  <path d="M316 352H364" stroke="#392C24" stroke-width="4" stroke-linecap="round"/>
  <path d="M198 410C166 430 140 465 140 500C140 559 198 606 270 606C342 606 400 559 400 500C400 462 372 427 338 408" fill="#9A4F2B"/>
  <path d="M345 440C389 443 434 410 434 364C434 333 414 310 390 298" stroke="#9A4F2B" stroke-width="20" stroke-linecap="round"/>
  <path d="M706 436C706 385 747 344 798 344H954C1005 344 1046 385 1046 436V454H706V436Z" fill="#C7865A"/>
  <path d="M746 454H1006V490C1006 523 979 550 946 550H806C773 550 746 523 746 490V454Z" fill="#B56D42"/>
  <path d="M770 392H982" stroke="#EFD7B4" stroke-width="8" stroke-linecap="round"/>
  <path d="M812 320C840 280 835 240 808 210" stroke="#A86A40" stroke-width="8" stroke-linecap="round"/>
  <path d="M880 312C910 270 904 230 878 194" stroke="#A86A40" stroke-width="8" stroke-linecap="round"/>
  <path d="M944 322C970 286 968 248 950 214" stroke="#A86A40" stroke-width="8" stroke-linecap="round"/>
  <circle cx="790" cy="166" r="18" fill="#D88953" fill-opacity="0.65"/>
  <circle cx="936" cy="160" r="14" fill="#D88953" fill-opacity="0.55"/>
</svg>
