<svg width="1200" height="820" viewBox="0 0 1200 820" fill="none" xmlns="http://www.w3.org/2000/svg">
  <rect width="1200" height="820" rx="56" fill="#F4E9D3"/>
  <rect x="48" y="48" width="1104" height="724" rx="40" fill="#F8F0E0" stroke="#D7C1A0" stroke-width="2"/>
  <circle cx="218" cy="624" r="148" fill="#E6CCAB" fill-opacity="0.7"/>
  <circle cx="1010" cy="188" r="128" fill="#E8D3B8"/>
  <rect x="212" y="288" width="182" height="238" rx="80" fill="#2E241E"/>
  <ellipse cx="303" cy="278" rx="118" ry="44" fill="#43352C"/>
  <ellipse cx="303" cy="278" rx="84" ry="24" fill="#1E1713"/>
  <rect x="266" y="520" width="74" height="132" rx="28" fill="#9A4F2B"/>
  <rect x="236" y="648" width="134" height="32" rx="16" fill="#7C3F23"/>
  <path d="M652 574C719 574 774 519 774 452C774 385 719 330 652 330C585 330 530 385 530 452C530 519 585 574 652 574Z" fill="#A56339"/>
  <path d="M630 354C588 408 591 482 641 536" stroke="#D99A63" stroke-width="16" stroke-linecap="round"/>
  <path d="M760 598L1048 488" stroke="#C7865A" stroke-width="18" stroke-linecap="round"/>
  <circle cx="876" cy="444" r="19" fill="#C7865A"/>
  <circle cx="942" cy="420" r="15" fill="#C7865A" fill-opacity="0.88"/>
  <circle cx="1002" cy="396" r="12" fill="#C7865A" fill-opacity="0.78"/>
  <path d="M812 256C873 226 964 232 1022 286C1081 341 1094 412 1066 463" stroke="#9A4F2B" stroke-width="22" stroke-linecap="round"/>
  <path d="M844 313C880 290 940 289 980 325C1019 360 1025 412 1008 446" stroke="#F3DFBE" stroke-width="14" stroke-linecap="round"/>
  <path d="M532 620C580 644 633 656 688 656C807 656 912 600 974 514" stroke="#6C5A4D" stroke-width="6" stroke-linecap="round" stroke-dasharray="2 16"/>
</svg>
